# AST/ASF file generated using VICON BodyLanguage
# -----------------------------------------------
:version 1.10
:name VICON
:units
  mass 1.0
  length 0.45
  angle deg
:documentation
   .ast/.asf automatically generated from VICON data using
   VICON BodyBuilder and BodyLanguage model FoxedUp or BRILLIANT.MOD
:root
   order TX TY TZ RX RY RZ
   axis XYZ
   position 0 0 0  
   orientation 0 0 0 
:bonedata
  begin
     id 1 
     name lhipjoint
     direction 0.722297 -0.617336 0.311742 
     length 2.6635 
     axis 0 0 0  XYZ
  end
  begin
     id 2 
     name lfemur
     direction 0.34202 -0.939693 0  
     length 7.39349  
     axis 0 0 20  XYZ
    dof rx ry rz
    limits (-160.0 20.0)
           (-70.0 70.0)
           (-60.0 70.0)
  end
  begin
     id 3 
     name ltibia
     direction 0.34202 -0.939693 0   
     length 7.36294   
     axis 0 0 20   XYZ
    dof rx
    limits (-10.0 170.0)
  end
  begin
     id 4 
     name lfoot
     direction 0.104879 -0.288152 0.951824   
     length 2.16981   
     axis -90 7.62852e-016 20   XYZ
    dof rx rz
    limits (-45.0 90.0)
           (-70.0 20.0)
  end
  begin
     id 5 
     name ltoes
     direction 1.53586e-011 -4.21895e-011 1   
     length 1.08218   
     axis -90 7.62852e-016 20   XYZ
    dof rx
    limits (-90.0 20.0)
  end
  begin
     id 6 
     name rhipjoint
     direction -0.75102 -0.589393 0.297631   
     length 2.78977  
     axis 0 0 0  XYZ 
  end
  begin
     id 7 
     name rfemur
     direction -0.34202 -0.939693 0   
     length 7.46076   
     axis 0 0 -20   XYZ
    dof rx ry rz
    limits (-160.0 20.0)
           (-70.0 70.0)
           (-70.0 60.0)
  end
  begin
     id 8 
     name rtibia
     direction -0.34202 -0.939693 0   
     length 7.31726   
     axis 0 0 -20   XYZ
    dof rx
    limits (-10.0 170.0)
 end
 begin
     id 9 
     name rfoot
     direction -0.107991 -0.296704 0.948844   
     length 2.09388  
     axis -90 -7.62852e-016 -20   XYZ
    dof rx rz
    limits (-45.0 90.0)
           (-20.0 70.0)
  end
  begin
     id 10 
     name rtoes
     direction -1.53559e-011 -4.21911e-011 1   
     length 1.04433   
     axis -90 -7.62852e-016 -20   XYZ
    dof rx
    limits (-90.0 20.0)
  end
  begin
     id 11 
     name lowerback
     direction 0.0165164 0.98272 0.184358   
     length 1.71896   
     axis 0 0 0   XYZ
    dof rx ry rz
    limits (-20.0 45.0)
           (-30.0 30.0)
           (-30.0 30.0)
  end
  begin
     id 12 
     name upperback
     direction -0.00887249 0.992297 0.123566   
     length 1.71504   
     axis 0 0 0   XYZ
    dof rx ry rz
    limits (-20.0 45.0)
           (-30.0 30.0)
           (-30.0 30.0)
  end
  begin
     id 13 
     name thorax
     direction -0.0157026 0.998908 0.0440032   
     length 1.77022   
     axis 0 0 0   XYZ
    dof rx ry rz
    limits (-20.0 45.0)
           (-30.0 30.0)
           (-30.0 30.0)
  end
  begin
     id 14 
     name lowerneck
     direction -0.0238856 0.998137 0.0561411   
     length 1.89341   
     axis 0 0 0   XYZ
    dof rx ry rz
    limits (-20.0 45.0)
           (-30.0 30.0)
           (-30.0 30.0)
  end
  begin
     id 15 
     name upperneck
     direction 0.0276574 0.952253 -0.304056   
     length 1.86999   
     axis 0 0 0   XYZ
    dof rx ry rz
    limits (-20.0 45.0)
           (-30.0 30.0)
           (-30.0 30.0)
  end
  begin
     id 16
     name head
     direction 0.00800083 0.994258 -0.106712  
     length 1.91492  
     axis 0 0 0   XYZ
    dof rx ry rz
    limits (-20.0 45.0)
           (-30.0 30.0)
           (-30.0 30.0)
  end
  begin
     id 17 
     name lclavicle
     direction 0.97203 0.225407 0.06595  
     length 3.34889  
     axis 0 0 0   XYZ
    dof ry rz
    limits (-20.0 10.0)
           (0.0 20.0)
  end
  begin
     id 18 
     name lhumerus
     direction 1 -4.48973e-011 2.20267e-027   
     length 4.85645   
     axis 180 -30 -90   XYZ
    dof rx ry rz
    limits (-60.0 90.0)
           (-90.0 90.0)
           (-90.0 90.0)
  end
  begin
     id 19
     name lradius
     direction 1 -4.4897e-011 4.60472e-027   
     length 2.79874   
     axis 180 -30 -90   XYZ
    dof rx
    limits (-10.0 170.0)
  end
  begin
     id 20
     name lwrist
     direction 1 -4.48952e-011 1.14928e-026   
     length 1.39937   
     axis -6.29373e-015 90 90   XYZ
    dof ry
    limits (-180.0 0.0)
 end
  begin
     id 21 
     name lhand
     direction 1 -4.48967e-011 2.29886e-026   
     length 0.573398   
     axis -1.46689e-014 90 90   XYZ
    dof rx rz
    limits (-90.0 90.0)
           (-45.0 45.0)
  end
  begin
     id 22 
     name lfingers
     direction 1 -4.48955e-011 4.59726e-026   
     length 0.462289   
     axis -2.93383e-014 90 90   XYZ
    dof rx
    limits (0.0 90.0)
  end
  begin
     id 23
     name lthumb
     direction 0.707107 -6.34866e-011 0.707107   
     length 0.663757   
     axis -90 45 5.69224e-014   XYZ
    dof rx rz
    limits (-45.0 45.0)
           (-45.0 45.0)
  end
  begin
     id 24 
     name rclavicle
     direction -0.981571 0.157346 0.108443   
     length 3.35257  
     axis 0 0 0   XYZ 
    dof ry rz
    limits (-10.0 20.0)
           (-20.0 0.0)
  end
  begin
     id 25 
     name rhumerus
     direction -1 -4.48967e-011 8.58308e-029  
     length 4.67018   
     axis 180 30 90   XYZ
    dof rx ry rz
    limits (-90.0 60.0)
           (-90.0 90.0)
           (-90.0 90.0)
  end
  begin
     id 26 
     name rradius
     direction -1 -4.48958e-011 4.52548e-027   
     length 2.65534   
     axis 180 30 90   XYZ
    dof rx
    limits (-10.0 170.0)
  end
  begin
     id 27 
     name rwrist
     direction -1 -4.48977e-011 1.14952e-026   
     length 1.32767   
     axis -6.29373e-015 -90 -90   XYZ
    dof ry
    limits (-180.0 0.0)
  end
  begin
     id 28
     name rhand
     direction -1 -4.48924e-011 2.29804e-026   
     length 0.594069   
     axis -1.46689e-014 -90 -90   XYZ
    dof rx rz
    limits (-90.0 90.0)
           (-45.0 45.0)
  end
  begin
     id 29
     name rfingers
     direction -1 -4.48998e-011 4.59888e-026   
     length 0.478954   
     axis -2.93383e-014 -90 -90   XYZ
    dof rx
    limits (0.0 90.0)
  end
  begin
     id 30
     name rthumb
     direction -0.707107 -6.34933e-011 0.707107   
     length 0.687685   
     axis -90 -45 -5.69224e-014   XYZ
    dof rx rz
    limits (-45.0 45.0)
           (-45.0 45.0)
  end
:hierarchy
  begin
    root lhipjoint rhipjoint lowerback
    lhipjoint lfemur
    lfemur ltibia
    ltibia lfoot
    lfoot ltoes
    rhipjoint rfemur
    rfemur rtibia
    rtibia rfoot
    rfoot rtoes
    lowerback upperback
    upperback thorax
    thorax lowerneck lclavicle rclavicle
    lowerneck upperneck
    upperneck head
    lclavicle lhumerus
    lhumerus lradius
    lradius lwrist
    lwrist lhand lthumb
    lhand lfingers
    rclavicle rhumerus
    rhumerus rradius
    rradius rwrist
    rwrist rhand rthumb
    rhand rfingers
  end

#!OML:ASF E:\pregnant2\Project 1\Capture day 1\Session 1\pregnant2.ASF
:FULLY-SPECIFIED
:DEGREES
632
root 4.10657 17.0549 44.3769 40.6398 19.1623 0.62901
lowerback -27.0192 -0.600901 -0.78679
upperback -18.24 -0.196747 -1.06826
thorax -5.63289 0.0926963 -0.7906
lowerneck -13.1657 2.60694 3.56867
upperneck 37.1033 2.26641 2.51721
head 15.1891 1.94376 0.836719
rclavicle 3.23025e-015 -1.82882e-014
rhumerus -45.472 31.2122 -59.5434
rradius 43.5722
rwrist 19.7071
rhand 2.90293 -4.99182
rfingers 7.12502
rthumb 28.3678 -32.8625
lclavicle 3.23025e-015 -1.82882e-014
lhumerus -27.865 -26.2441 37.4128
lradius 39.8832
lwrist 7.81584
lhand 12.5998 25.74
lfingers 7.12502
lthumb 37.5878 51.6502
rfemur -50.151 9.48426 12.6385
rtibia 24.5296
rfoot -14.2999 -18.2305
rtoes -1.70723
lfemur -51.6012 -15.2077 -11.7946
ltibia 20.1848
lfoot -4.28954 14.7159
ltoes -17.4852
633
root 4.10717 17.0564 44.3785 40.5771 19.1907 0.609882
lowerback -27.1032 -0.639438 -0.83563
upperback -18.2559 -0.233467 -1.03683
thorax -5.61397 0.0813979 -0.736655
lowerneck -13.0606 2.43433 3.33861
upperneck 37.2005 2.05185 2.58654
head 15.2041 1.83084 0.871209
rclavicle -8.44835e-016 -1.66979e-014
rhumerus -43.3356 30.3793 -56.8812
rradius 41.9166
rwrist 18.521
rhand 3.7485 -5.48542
rfingers 7.12502
rthumb 29.1756 -33.2188
lclavicle -8.44835e-016 -1.66979e-014
lhumerus -26.0585 -24.8863 35.4811
lradius 38.9656
lwrist 7.79915
lhand 12.1859 25.8139
lfingers 7.12502
lthumb 37.1965 51.8273
rfemur -50.049 9.45082 12.7129
rtibia 24.4856
rfoot -14.2756 -18.1948
rtoes -1.80812
lfemur -51.5325 -15.2185 -11.7841
ltibia 20.179
lfoot -4.29279 14.7103
ltoes -17.498
634
root 4.10772 17.058 44.38 40.5116 19.2132 0.596591
lowerback -27.1872 -0.684206 -0.898234
upperback -18.267 -0.27541 -0.997393
thorax -5.58925 0.0691837 -0.667254
lowerneck -12.9608 2.271 3.11742
upperneck 37.3164 1.85543 2.63582
head 15.231 1.72419 0.899605
rclavicle -1.15792e-014 -3.22031e-014
rhumerus -41.1289 29.3695 -54.1845
rradius 40.3052
rwrist 17.1143
rhand 4.60455 -6.12142
rfingers 7.12502
rthumb 29.9927 -33.71
lclavicle -1.15792e-014 -3.22031e-014
lhumerus -24.3118 -23.4846 33.6467
lradius 38.1634
lwrist 7.86793
lhand 11.638 25.8765
lfingers 7.12502
lthumb 36.6782 52.0235
rfemur -49.9486 9.42065 12.777
rtibia 24.4514
rfoot -14.2623 -18.1605
rtoes -1.8563
lfemur -51.4488 -15.2278 -11.7873
ltibia 20.1637
lfoot -4.29582 14.7009
ltoes -17.5109
635
root 4.10816 17.0592 44.3811 40.4408 19.2254 0.593117
lowerback -27.2611 -0.735617 -0.979021
upperback -18.275 -0.322435 -0.950764
thorax -5.56517 0.0564648 -0.580748
lowerneck -12.8725 2.11757 2.89091
upperneck 37.4542 1.67763 2.67695
head 15.2722 1.6237 0.92964
rclavicle 3.75206e-014 1.86858e-014
rhumerus -38.8775 28.1992 -51.4849
rradius 38.753
rwrist 15.5628
rhand 5.40156 -6.89908
rfingers 7.12502
rthumb 30.7529 -34.3474
lclavicle 3.75206e-014 1.86858e-014
lhumerus -22.6067 -21.9862 31.9118
lradius 37.4374
lwrist 7.99588
lhand 10.976 25.9287
lfingers 7.12502
lthumb 36.0514 52.2325
rfemur -49.8502 9.39369 12.826
rtibia 24.4318
rfoot -14.2585 -18.1267
rtoes -1.86597
lfemur -51.3583 -15.2458 -11.7975
ltibia 20.1398
lfoot -4.28416 14.7009
ltoes -17.5298
636
root 4.10843 17.0603 44.3815 40.3647 19.2272 0.599882
lowerback -27.3207 -0.793333 -1.07636
upperback -18.2791 -0.374598 -0.897796
thorax -5.54251 0.0429443 -0.478986
lowerneck -12.7952 1.97424 2.66503
upperneck 37.6077 1.51971 2.70285
head 15.3247 1.52963 0.957212
rclavicle 5.40694e-014 3.93594e-014
rhumerus -36.5974 26.868 -48.8079
rradius 37.2718
rwrist 13.9826
rhand 6.14057 -7.78407
rfingers 7.12502
rthumb 31.4573 -35.0974
lclavicle 5.40694e-014 3.93594e-014
lhumerus -20.9437 -20.4061 30.2841
lradius 36.7935
lwrist 8.21416
lhand 10.2036 26.0063
lfingers 7.12502
lthumb 35.3194 52.4872
rfemur -49.7537 9.37052 12.8582
rtibia 24.424
rfoot -14.2543 -18.0956
rtoes -1.89628
lfemur -51.2547 -15.2594 -11.8315
ltibia 20.1153
lfoot -4.27489 14.6954
ltoes -17.5522
637
root 4.10865 17.0611 44.3815 40.2844 19.2241 0.610821
lowerback -27.3687 -0.850329 -1.17763
upperback -18.2822 -0.42525 -0.843427
thorax -5.52359 0.0305998 -0.373136
lowerneck -12.7237 1.83574 2.44276
upperneck 37.7748 1.37332 2.71332
head 15.3864 1.43885 0.980129
rclavicle 1.19271e-015 -1.78906e-014
rhumerus -34.3275 25.3828 -46.1894
rradius 35.8678
rwrist 12.486
rhand 6.75067 -8.74741
rfingers 7.12502
rthumb 32.0383 -35.9457
lclavicle 1.19271e-015 -1.78906e-014
lhumerus -19.3103 -18.7614 28.7704
lradius 36.2317
lwrist 8.52936
lhand 9.34005 26.1202
lfingers 7.12502
lthumb 34.5001 52.7916
rfemur -49.6601 9.35196 12.8813
rtibia 24.4274
rfoot -14.2567 -18.0677
rtoes -1.89098
lfemur -51.145 -15.2713 -11.8757
ltibia 20.0909
lfoot -4.26623 14.6877
ltoes -17.5766
638
root 4.10887 17.0619 44.3813 40.2012 19.222 0.61975
lowerback -27.4101 -0.90674 -1.27491
upperback -18.285 -0.476088 -0.785525
thorax -5.50728 0.0179721 -0.265702
lowerneck -12.66 1.70433 2.22483
upperneck 37.9547 1.24108 2.71
head 15.4572 1.35274 0.999319
rclavicle -8.74653e-015 -3.81667e-014
rhumerus -32.0683 23.7069 -43.6411
rradius 34.5268
rwrist 11.2303
rhand 7.19699 -9.73993
rfingers 7.12502
rthumb 32.4632 -36.8519
lclavicle -8.74653e-015 -3.81667e-014
lhumerus -17.6974 -17.0107 27.3738
lradius 35.7344
lwrist 8.8894
lhand 8.42894 26.2868
lfingers 7.12502
lthumb 33.6348 53.1509
rfemur -49.5666 9.33809 12.9038
rtibia 24.433
rfoot -14.258 -18.0451
rtoes -1.90008
lfemur -51.0369 -15.28 -11.9213
ltibia 20.0773
lfoot -4.26721 14.6774
ltoes -17.5894
639
root 4.10905 17.0625 44.3809 40.119 19.2181 0.629234
lowerback -27.4467 -0.961969 -1.37014
upperback -18.2887 -0.525912 -0.726829
thorax -5.49394 0.00570013 -0.158353
lowerneck -12.6034 1.57784 2.0073
upperneck 38.1435 1.119 2.69809
head 15.5352 1.2697 1.01687
rclavicle 3.47873e-016 2.06736e-014
rhumerus -29.8505 21.8535 -41.198
rradius 33.2723
rwrist 10.2791
rhand 7.41398 -10.7368
rfingers 7.12502
rthumb 32.6697 -37.8062
lclavicle 3.47873e-016 2.06736e-014
lhumerus -16.1209 -15.1929 26.101
lradius 35.3425
lwrist 9.31284
lhand 7.48234 26.5636
lfingers 7.12502
lthumb 32.7347 53.6194
rfemur -49.4757 9.33091 12.9197
rtibia 24.4386
rfoot -14.2563 -18.0291
rtoes -1.91949
lfemur -50.9332 -15.2855 -11.9699
ltibia 20.0695
lfoot -4.27065 14.6651
ltoes -17.5992
640
root 4.10945 17.0633 44.3807 40.0375 19.2238 0.629436
lowerback -27.4878 -1.0132 -1.44688
upperback -18.2924 -0.574209 -0.666465
thorax -5.47849 -0.00744112 -0.0593306
lowerneck -12.5611 1.45762 1.79574
upperneck 38.3472 1.00821 2.67549
head 15.6252 1.19079 1.03128
rclavicle -1.66482e-014 -1.23246e-014
rhumerus -27.7073 19.8729 -38.9004
rradius 32.1306
rwrist 9.63187
rhand 7.30914 -11.6975
rfingers 7.12502
rthumb 32.5699 -38.7875
lclavicle -1.66482e-014 -1.23246e-014
lhumerus -14.6013 -13.3653 24.9547
lradius 35.1007
lwrist 9.84263
lhand 6.48863 26.9615
lfingers 7.12502
lthumb 31.7888 54.2096
rfemur -49.3832 9.32194 12.949
rtibia 24.4391
rfoot -14.2583 -18.0114
rtoes -1.91142
lfemur -50.8377 -15.2897 -12.0059
ltibia 20.0725
lfoot -4.28396 14.6514
ltoes -17.5971
641
root 4.10995 17.0639 44.3805 39.9543 19.2338 0.627073
lowerback -27.524 -1.06478 -1.51541
upperback -18.2981 -0.624769 -0.603995
thorax -5.46753 -0.0223875 0.0368772
lowerneck -12.5194 1.34426 1.597
upperneck 38.5532 0.910343 2.63646
head 15.7176 1.11669 1.03851
rclavicle 3.18055e-015 1.66979e-014
rhumerus -25.6638 17.8444 -36.7848
rradius 31.1659
rwrist 9.18771
rhand 6.92006 -12.7111
rfingers 7.12502
rthumb 32.1996 -39.8768
lclavicle 3.18055e-015 1.66979e-014
lhumerus -13.1426 -11.532 23.9358
lradius 35.0078
lwrist 10.4683
lhand 5.45638 27.5068
lfingers 7.12502
lthumb 30.8052 54.9452
rfemur -49.2863 9.31416 12.9812
rtibia 24.4356
rfoot -14.2585 -17.9966
rtoes -1.93116
lfemur -50.7519 -15.3011 -12.0291
ltibia 20.0797
lfoot -4.2893 14.6446
ltoes -17.6022
